<svg xmlns="http://www.w3.org/2000/svg" viewBox="0 0 800 450" role="img" aria-labelledby="title desc">
  <title id="title">Escrow contract test flow</title>
  <desc id="desc">A flow diagram representing escrow test cases for deposit, approval, and payout.</desc>
  <defs><linearGradient id="bg" x1="0" y1="0" x2="1" y2="1"><stop stop-color="#11182a"/><stop offset="1" stop-color="#2a1c48"/></linearGradient></defs>
  <rect width="800" height="450" rx="28" fill="url(#bg)"/>
  <circle cx="675" cy="72" r="145" fill="#8f72ff" opacity=".14"/>
  <rect x="64" y="148" width="170" height="132" rx="20" fill="#1a2941" stroke="#60d7ff" stroke-width="3"/>
  <rect x="315" y="148" width="170" height="132" rx="20" fill="#292341" stroke="#a18aff" stroke-width="3"/>
  <rect x="566" y="148" width="170" height="132" rx="20" fill="#1a2941" stroke="#53dfad" stroke-width="3"/>
  <path d="M234 214h81M485 214h81" stroke="#d3dfff" stroke-width="6" stroke-linecap="round"/><path d="m294 198 18 16-18 16M545 198l18 16-18 16" fill="none" stroke="#d3dfff" stroke-width="6" stroke-linecap="round" stroke-linejoin="round"/>
  <circle cx="149" cy="190" r="17" fill="#60d7ff"/><path d="M149 181v18m-7-13h14m-14 8h14" stroke="#132033" stroke-width="3" stroke-linecap="round"/>
  <path d="M380 184h40v40h-40zM389 176v16m22-16v16" fill="none" stroke="#c8bdff" stroke-width="5" stroke-linecap="round" stroke-linejoin="round"/>
  <path d="m617 213 15 15 31-36" fill="none" stroke="#69f0bb" stroke-width="7" stroke-linecap="round" stroke-linejoin="round"/>
  <text x="149" y="254" fill="#eff8ff" font-family="Arial,sans-serif" font-size="17" font-weight="700" text-anchor="middle">DEPOSIT</text>
  <text x="400" y="254" fill="#eff8ff" font-family="Arial,sans-serif" font-size="17" font-weight="700" text-anchor="middle">TEST STATES</text>
  <text x="651" y="254" fill="#eff8ff" font-family="Arial,sans-serif" font-size="17" font-weight="700" text-anchor="middle">RELEASE</text>
  <text x="400" y="352" fill="#f3efff" font-family="Arial,sans-serif" font-size="25" font-weight="700" text-anchor="middle">ESCROW REGRESSION TESTS</text>
  <text x="400" y="386" fill="#b8b1d3" font-family="Arial,sans-serif" font-size="16" text-anchor="middle">Pause recovery · expiry · balance assertions</text>
</svg>
